# xmcd
#
# Track frame offsets:
#	182
#	13402
#	24745
#	37012
#	47387
#	59120
#	75167
#	87910
#	100725
#	112272
#	125000
#	139270
#	152925
#	163317
#	174987
#	186015
#	198907
#	211605
#	223530
#	237285
#
# Disc length: 3325 seconds
#
# Revision: 3
# Processed by: cddbd v1.5.1PL0 Copyright (c) Steve Scherf et al.
# Submitted via: audiograbber 1.83.01
#
DISCID=1a0cfb14
DTITLE=Ray Charles - Blues and Soul Greats
DYEAR=1995
DGENRE=Blues
TTITLE0=Baby Won't You Please Come Home
TTITLE1=She's On The Ball
TTITLE2=Honey Honey
TTITLE3=Ain't That Fine
TTITLE4=How Long
TTITLE5=I Found My Baby There
TTITLE6=You Never Miss The Water ('Til The Well Runs Dry)
TTITLE7=The Snow Is Falling
TTITLE8=Tell Me Baby
TTITLE9=Blues Before Sunrise
TTITLE10=Some Day (Blues Is My Middle Name)
TTITLE11=Baby Let Me Hold Your Hand
TTITLE12=Now She's Gone
TTITLE13=See See Rider
TTITLE14=A Sentimental Blues
TTITLE15=Don't Put All Your Dreams In One Basket
TTITLE16=Why Did You Go?
TTITLE17=Can't You See Darling
TTITLE18=This Love Of Mine
TTITLE19=Goin' Down Slow
EXTD=
EXTT0=
EXTT1=
EXTT2=
EXTT3=
EXTT4=
EXTT5=
EXTT6=
EXTT7=
EXTT8=
EXTT9=
EXTT10=
EXTT11=
EXTT12=
EXTT13=
EXTT14=
EXTT15=
EXTT16=
EXTT17=
EXTT18=
EXTT19=
PLAYORDER=
